<svg width="25" height="25" viewBox="0 0 25 25" fill="none" xmlns="http://www.w3.org/2000/svg">
<path d="M2.60449 9.89648H22.3962V19.7923H2.60449V9.89648Z" fill="#C4E3F0"/>
<path d="M2.60449 19.791H22.3962V21.8743H2.60449V19.791Z" fill="#98B1BD"/>
<path d="M14.0625 12.5H20.3125V21.875H14.0625V12.5Z" fill="#8FB5C7"/>
<path d="M4.6875 12.5H11.9792V18.2292H4.6875V12.5Z" fill="#E3F2FD"/>
<path d="M5.20801 13.0215H11.458V17.709H5.20801V13.0215Z" fill="#92FE9E" fill-opacity="0.71"/>
<path d="M19.0104 17.4473C18.8542 17.4473 18.75 17.5514 18.75 17.7077V18.7493C18.75 18.9056 18.8542 19.0098 19.0104 19.0098C19.1667 19.0098 19.2708 18.9056 19.2708 18.7493V17.7077C19.2708 17.5514 19.1667 17.4473 19.0104 17.4473Z" fill="#596063"/>
<path d="M12.5 11.459C13.3629 11.459 14.0625 10.7594 14.0625 9.89648C14.0625 9.03354 13.3629 8.33398 12.5 8.33398C11.6371 8.33398 10.9375 9.03354 10.9375 9.89648C10.9375 10.7594 11.6371 11.459 12.5 11.459Z" fill="#02C5F5"/>
<path d="M18.75 11.459C19.6129 11.459 20.3125 10.7594 20.3125 9.89648C20.3125 9.03354 19.6129 8.33398 18.75 8.33398C17.8871 8.33398 17.1875 9.03354 17.1875 9.89648C17.1875 10.7594 17.8871 11.459 18.75 11.459Z" fill="#02C5F5"/>
<path d="M6.25 11.459C7.11294 11.459 7.8125 10.7594 7.8125 9.89648C7.8125 9.03354 7.11294 8.33398 6.25 8.33398C5.38706 8.33398 4.6875 9.03354 4.6875 9.89648C4.6875 10.7594 5.38706 11.459 6.25 11.459Z" fill="#02C5F5"/>
<path d="M20.8333 3.125H4.16667C3.59375 3.125 3.125 3.59375 3.125 4.16667V5.72917H21.875V4.16667C21.875 3.59375 21.4062 3.125 20.8333 3.125ZM10.9375 5.72917H14.0625V9.89583H10.9375V5.72917ZM19.2708 5.72917H16.6667L17.1875 9.89583H20.3125L19.2708 5.72917ZM5.72917 5.72917H8.33333L7.8125 9.89583H4.6875L5.72917 5.72917Z" fill="#02C5F5"/>
<path d="M15.625 11.459C16.4879 11.459 17.1875 10.7594 17.1875 9.89648C17.1875 9.03354 16.4879 8.33398 15.625 8.33398C14.7621 8.33398 14.0625 9.03354 14.0625 9.89648C14.0625 10.7594 14.7621 11.459 15.625 11.459Z" fill="#92FE9E" fill-opacity="0.71"/>
<path d="M23.4375 9.89648C23.4375 10.7819 22.7604 11.459 21.875 11.459C20.9896 11.459 20.3125 10.7819 20.3125 9.89648C20.3125 9.01107 20.9896 8.33398 21.875 8.33398L23.4375 9.89648Z" fill="#92FE9E" fill-opacity="0.71"/>
<path d="M9.375 11.459C10.2379 11.459 10.9375 10.7594 10.9375 9.89648C10.9375 9.03354 10.2379 8.33398 9.375 8.33398C8.51206 8.33398 7.8125 9.03354 7.8125 9.89648C7.8125 10.7594 8.51206 11.459 9.375 11.459Z" fill="#92FE9E" fill-opacity="0.71"/>
<path d="M1.5625 9.89648C1.5625 10.7819 2.23958 11.459 3.125 11.459C4.01042 11.459 4.6875 10.7819 4.6875 9.89648C4.6875 9.01107 4.01042 8.33398 3.125 8.33398L1.5625 9.89648Z" fill="#92FE9E" fill-opacity="0.71"/>
<path d="M16.6667 5.72852H14.0625V9.89518H17.1875L16.6667 5.72852ZM21.875 5.72852H19.2708L20.3125 9.89518H23.4375L21.875 5.72852ZM8.33333 5.72852H10.9375V9.89518H7.8125L8.33333 5.72852ZM3.125 5.72852H5.72917L4.6875 9.89518H1.5625L3.125 5.72852Z" fill="#92FE9E" fill-opacity="0.71"/>
</svg>
